<svg xmlns="http://www.w3.org/2000/svg" xmlns:xlink="http://www.w3.org/1999/xlink" width="560" height="560" viewBox="0 0 560 560"><defs><clipPath id="a"><rect width="560" height="560" transform="translate(7680 -1013)" fill="#fff"/></clipPath><radialGradient id="b" cx="0.5" cy="0.5" r="0.5" gradientUnits="objectBoundingBox"><stop offset="0" stop-color="#a5cff3"/><stop offset="1" stop-color="#51afff"/></radialGradient></defs><g transform="translate(-7680 1013)" clip-path="url(#a)"><g transform="translate(1.843 94.653)"><path d="M262.788,571.6h0c-6.372-.2-12.778-.627-19.042-1.263a272.309,272.309,0,0,1-26.975-4.117c-8.745-1.789-17.5-4.042-26.037-6.694-8.424-2.621-16.822-5.694-24.961-9.136-8.059-3.41-16.049-7.259-23.748-11.441-7.646-4.154-15.183-8.732-22.4-13.608-7.181-4.851-14.217-10.113-20.914-15.639-4.124-3.4-8.214-6.988-12.156-10.654l48.135-48.135a203.828,203.828,0,0,0,128.1,52.722Zm19.017-.053V503.559a203.819,203.819,0,0,0,127.6-53.612l48.124,48.124c-4.277,4.018-8.717,7.929-13.2,11.626-6.688,5.519-13.724,10.78-20.914,15.639-7.224,4.879-14.761,9.458-22.4,13.608-7.693,4.179-15.683,8.028-23.748,11.441-8.132,3.439-16.53,6.513-24.961,9.136-8.534,2.653-17.294,4.9-26.036,6.694a272.321,272.321,0,0,1-26.975,4.117c-5.771.585-11.657.992-17.493,1.21h0ZM72.987,485.51h0c-3.829-4.1-7.565-8.349-11.105-12.639-5.524-6.694-10.786-13.731-15.639-20.915-4.877-7.219-9.456-14.756-13.608-22.4-4.181-7.694-8.03-15.684-11.441-23.749-3.439-8.129-6.513-16.527-9.136-24.961-2.651-8.524-4.9-17.284-6.694-26.035a272.379,272.379,0,0,1-4.117-26.975C.628,321.75.209,315.527,0,309.341H67.972A203.811,203.811,0,0,0,121.117,437.38Zm398.037-1.043-48.141-48.141a203.934,203.934,0,0,0,52.188-126.986h67.971c-.209,6.188-.628,12.41-1.246,18.494a272.474,272.474,0,0,1-4.117,26.975c-1.791,8.748-4.043,17.508-6.7,26.035-2.62,8.427-5.694,16.825-9.135,24.961-3.411,8.061-7.26,16.052-11.441,23.749-4.155,7.648-8.733,15.184-13.608,22.4-4.861,7.194-10.123,14.231-15.639,20.915-3.241,3.926-6.651,7.828-10.137,11.6ZM67.993,290.325H.015C.23,284.272.644,278.2,1.247,272.28A272.29,272.29,0,0,1,5.363,245.3c1.791-8.753,4.043-17.513,6.694-26.036,2.623-8.433,5.7-16.831,9.136-24.961,3.413-8.068,7.263-16.059,11.441-23.749,4.152-7.643,8.731-15.179,13.608-22.4,4.855-7.188,10.117-14.224,15.639-20.915,3.7-4.485,7.612-8.925,11.625-13.2l48.124,48.124A203.786,203.786,0,0,0,67.992,290.324Zm475.036,0H475.051a203.9,203.9,0,0,0-52.678-127.1l48.135-48.135c3.676,3.955,7.26,8.045,10.654,12.157,5.524,6.694,10.786,13.731,15.639,20.915,4.876,7.216,9.454,14.752,13.608,22.4,4.183,7.7,8.032,15.692,11.441,23.749,3.442,8.137,6.515,16.536,9.135,24.961,2.65,8.516,4.9,17.276,6.7,26.036A272.393,272.393,0,0,1,541.8,272.28c.6,5.939,1.017,12.009,1.23,18.042ZM408.845,149.652h0a203.885,203.885,0,0,0-127.04-53.1V28.571c5.853.218,11.738.625,17.494,1.21A271.859,271.859,0,0,1,326.274,33.9c8.745,1.789,17.5,4.041,26.036,6.694,8.421,2.619,16.819,5.692,24.961,9.135,8.068,3.414,16.058,7.263,23.748,11.442,7.64,4.15,15.177,8.728,22.4,13.607,7.181,4.851,14.217,10.114,20.914,15.64,4.289,3.54,8.543,7.276,12.641,11.106l-48.129,48.129ZM135.252,148.7,87.11,100.553c3.777-3.492,7.679-6.9,11.6-10.137,6.7-5.527,13.734-10.789,20.914-15.64,7.223-4.88,14.76-9.458,22.4-13.607,7.688-4.178,15.679-8.028,23.748-11.442,6.76-2.859,13.733-5.476,20.724-7.779l19.818,65.109a202.907,202.907,0,0,0-71.062,41.636h0Z" transform="translate(7686.157 -1119.379)" fill="url(#b)"/><path d="M51.347,0l51.347,45.1H0Z" transform="translate(7909.455 -1107.653) rotate(73)" fill="#51afff"/></g></g></svg>