<?xml version="1.0" standalone="no"?>
<!DOCTYPE svg PUBLIC "-//W3C//DTD SVG 20010904//EN"
 "http://www.w3.org/TR/2001/REC-SVG-20010904/DTD/svg10.dtd">
<svg version="1.0" xmlns="http://www.w3.org/2000/svg"
 width="700.000000pt" height="700.000000pt" viewBox="0 0 700.000000 700.000000"
 preserveAspectRatio="xMidYMid meet">
<metadata>
Created by potrace 1.14, written by Peter Selinger 2001-2017
</metadata>
<g transform="translate(0.000000,700.000000) scale(0.100000,-0.100000)"
fill="#000000" stroke="none">
<path d="M2 6783 l3 -218 3495 0 3495 0 3 218 2 217 -3500 0 -3500 0 2 -217z"/>
<path d="M2120 5060 c0 -104 0 -840 0 -1635 0 -795 0 -1499 0 -1566 l0 -121
438 5 c240 2 451 7 467 11 132 28 179 43 242 73 119 57 178 142 213 301 18 80
19 128 17 582 -3 550 -4 560 -71 664 -38 60 -80 98 -145 131 -59 29 -164 61
-216 65 -11 1 16 12 60 24 186 53 269 132 316 301 22 76 23 98 23 460 1 442
-3 488 -45 600 -48 129 -162 218 -327 256 -120 28 -252 36 -604 38 l-368 2 0
-191z m706 -185 c101 -29 154 -105 170 -242 11 -95 7 -572 -6 -648 -24 -146
-88 -210 -232 -231 -48 -7 -169 -11 -189 -7 -13 4 -15 66 -14 576 1 315 3 573
4 574 6 8 225 -10 267 -22z m32 -1500 c98 -30 150 -100 169 -230 14 -94 9
-774 -6 -835 -33 -133 -87 -185 -216 -209 -68 -13 -230 -20 -243 -12 -5 3 -8
300 -8 659 l0 653 125 -5 c74 -3 148 -11 179 -21z"/>
<path d="M3990 5228 c-1 -29 -1 -3282 0 -3401 l0 -87 226 2 226 3 2 810 1 810
279 0 279 0 1 179 c1 109 -3 180 -9 184 -5 4 -131 7 -280 7 l-270 0 -1 571 -2
571 297 0 296 0 1 186 1 187 -523 0 -524 0 0 -22z"/>
<path d="M0 218 l0 -218 3500 0 3500 0 0 218 0 219 -3500 0 -3500 0 0 -219z"/>
</g>
</svg>
